# xmcd
#
# Track frame offsets:
#	150
#	11472
#	23307
#	35352
#	46690
#	64132
#	78407
#	95107
#	105829
#	118897
#	127837
#	138212
#	147000
#	161557
#	180592
#	192661
#	211023
#	229748
#	241864
#	253340
#
# Disc length: 3474 seconds
#
# Revision: 1
# Processed by: cddbd v1.5.1PL0 Copyright (c) Steve Scherf et al.
# Submitted via: audiograbber 1.83.01
#
DISCID=fd0d9014
DTITLE=Various Artist - Rockin' Blues
DYEAR=1999
DGENRE=Blues
TTITLE0=Leadbelly - John Hardy
TTITLE1=Pinetop Perkins - Yonders Wall
TTITLE2=Jimmy Reed - I'm Nervous
TTITLE3=Lightin' Slim - My Babe
TTITLE4=Big Joe Turner - Jump For Joy
TTITLE5=Memphis Slim - Blue And Lonesome
TTITLE6=Muddy Waters - Caledonia
TTITLE7=Big Joe Williams - Sinkin Blues
TTITLE8=Billie Holiday - Billies Blues
TTITLE9=Canned Heat - Pretty Thing
TTITLE10=Ray Charles - Sitting On The Top Of The World
TTITLE11=John Lee Hooker - Hobo Blues
TTITLE12=Lightin' Hopkins - Going Back Home
TTITLE13=Mississippi John Hurt - Monday Morning Blues
TTITLE14=Leadbelly - Goodnight Irene
TTITLE15=Pinetop Perkins - Whiskey Headed Woman
TTITLE16=Howlin' Wolf - All My Life
TTITLE17=Jimmy Reed - Goin' Fishin'
TTITLE18=Lightin' Slim - Bad Luck Blues
TTITLE19=Big Joe Williams - Terraplane Blues
EXTD=YEAR: 1999 ID3G: 0
EXTT0=
EXTT1=
EXTT2=
EXTT3=
EXTT4=
EXTT5=
EXTT6=
EXTT7=
EXTT8=
EXTT9=
EXTT10=
EXTT11=
EXTT12=
EXTT13=
EXTT14=
EXTT15=
EXTT16=
EXTT17=
EXTT18=
EXTT19=
PLAYORDER=
